<svg xmlns="http://www.w3.org/2000/svg" viewBox="0 0 800 600" fill="none">
  <!-- Background gradient -->
  <defs>
    <linearGradient id="bgGradient" x1="0%" y1="0%" x2="100%" y2="100%">
      <stop offset="0%" style="stop-color:#EBF4FF;stop-opacity:1" />
      <stop offset="100%" style="stop-color:#DBEAFE;stop-opacity:1" />
    </linearGradient>
    <linearGradient id="bookGradient" x1="0%" y1="0%" x2="100%" y2="100%">
      <stop offset="0%" style="stop-color:#3B82F6;stop-opacity:1" />
      <stop offset="100%" style="stop-color:#2563EB;stop-opacity:1" />
    </linearGradient>
    <linearGradient id="screenGradient" x1="0%" y1="0%" x2="100%" y2="100%">
      <stop offset="0%" style="stop-color:#60A5FA;stop-opacity:1" />
      <stop offset="100%" style="stop-color:#3B82F6;stop-opacity:1" />
    </linearGradient>
  </defs>
  
  <!-- Background -->
  <rect width="800" height="600" fill="url(#bgGradient)"/>
  
  <!-- Decorative circles -->
  <circle cx="100" cy="100" r="60" fill="#BFDBFE" opacity="0.3"/>
  <circle cx="700" cy="500" r="80" fill="#93C5FD" opacity="0.3"/>
  <circle cx="650" cy="100" r="50" fill="#DBEAFE" opacity="0.5"/>
  
  <!-- Desk -->
  <rect x="150" y="380" width="500" height="20" rx="10" fill="#94A3B8"/>
  <rect x="150" y="400" width="500" height="180" rx="15" fill="#64748B"/>
  
  <!-- Laptop -->
  <g id="laptop">
    <!-- Laptop base -->
    <rect x="300" y="330" width="200" height="10" rx="5" fill="#475569"/>
    <!-- Laptop screen -->
    <rect x="290" y="200" width="220" height="140" rx="8" fill="#1E293B"/>
    <rect x="300" y="210" width="200" height="120" rx="4" fill="url(#screenGradient)"/>
    <!-- Screen content - video call interface -->
    <rect x="310" y="220" width="80" height="60" rx="4" fill="#1E40AF" opacity="0.8"/>
    <circle cx="350" cy="245" r="12" fill="#DBEAFE"/>
    <circle cx="350" cy="245" r="8" fill="#3B82F6"/>
    <text x="350" y="270" font-family="Arial, sans-serif" font-size="8" fill="#DBEAFE" text-anchor="middle">Tutor</text>
    <!-- Chat bubbles on screen -->
    <rect x="400" y="225" width="60" height="15" rx="7" fill="#DBEAFE"/>
    <rect x="410" y="250" width="70" height="15" rx="7" fill="#60A5FA"/>
    <rect x="400" y="275" width="65" height="15" rx="7" fill="#DBEAFE"/>
    <!-- Laptop camera -->
    <circle cx="400" cy="208" r="3" fill="#3B82F6"/>
  </g>
  
  <!-- Books stack -->
  <g id="books">
    <!-- Book 1 (bottom) -->
    <rect x="520" y="320" width="90" height="60" rx="4" fill="#DC2626" transform="rotate(-5 565 350)"/>
    <rect x="525" y="325" width="80" height="10" rx="2" fill="#B91C1C" transform="rotate(-5 565 330)"/>
    <!-- Book 2 (middle) -->
    <rect x="525" y="280" width="85" height="50" rx="4" fill="#2563EB" transform="rotate(2 567 305)"/>
    <rect x="530" y="285" width="75" height="8" rx="2" fill="#1D4ED8" transform="rotate(2 567 289)"/>
    <!-- Book 3 (top) -->
    <rect x="520" y="240" width="90" height="45" rx="4" fill="#059669" transform="rotate(-3 565 262)"/>
    <rect x="525" y="245" width="80" height="8" rx="2" fill="#047857" transform="rotate(-3 565 249)"/>
  </g>
  
  <!-- Coffee mug -->
  <g id="coffee">
    <ellipse cx="220" cy="350" rx="18" ry="8" fill="#8B4513" opacity="0.3"/>
    <rect x="202" y="320" width="36" height="30" rx="4" fill="#F59E0B"/>
    <rect x="205" y="323" width="30" height="24" rx="3" fill="#FCD34D"/>
    <!-- Steam -->
    <path d="M 215 310 Q 210 300 215 290" stroke="#94A3B8" stroke-width="2" fill="none" opacity="0.6"/>
    <path d="M 225 310 Q 230 300 225 290" stroke="#94A3B8" stroke-width="2" fill="none" opacity="0.6"/>
    <!-- Handle -->
    <path d="M 238 330 Q 250 335 238 340" stroke="#F59E0B" stroke-width="4" fill="none"/>
  </g>
  
  <!-- Pen holder with pens -->
  <g id="penholder">
    <ellipse cx="180" cy="340" rx="15" ry="6" fill="#1E40AF" opacity="0.3"/>
    <rect x="165" y="305" width="30" height="35" rx="4" fill="#3B82F6"/>
    <rect x="168" y="308" width="24" height="30" rx="2" fill="#60A5FA"/>
    <!-- Pens -->
    <rect x="172" y="290" width="4" height="20" rx="2" fill="#DC2626"/>
    <rect x="178" y="285" width="4" height="25" rx="2" fill="#059669"/>
    <rect x="184" y="292" width="4" height="18" rx="2" fill="#7C3AED"/>
  </g>
  
  <!-- Notebook/Notes -->
  <g id="notebook">
    <rect x="350" y="420" width="100" height="80" rx="4" fill="#FFFFFF"/>
    <rect x="350" y="420" width="100" height="10" rx="4" fill="#3B82F6"/>
    <!-- Lines on notebook -->
    <line x1="360" y1="440" x2="440" y2="440" stroke="#E5E7EB" stroke-width="2"/>
    <line x1="360" y1="450" x2="440" y2="450" stroke="#E5E7EB" stroke-width="2"/>
    <line x1="360" y1="460" x2="440" y2="460" stroke="#E5E7EB" stroke-width="2"/>
    <line x1="360" y1="470" x2="420" y2="470" stroke="#E5E7EB" stroke-width="2"/>
    <!-- Pen on notebook -->
    <rect x="410" y="455" width="35" height="4" rx="2" fill="#3B82F6" transform="rotate(25 427 457)"/>
    <circle cx="445" cy="463" r="3" fill="#1E40AF"/>
  </g>
  
  <!-- Plant decoration -->
  <g id="plant">
    <ellipse cx="600" cy="370" rx="25" ry="10" fill="#10B981" opacity="0.2"/>
    <rect x="590" y="340" width="20" height="30" rx="10" fill="#DC2626"/>
    <!-- Leaves -->
    <ellipse cx="595" cy="325" rx="15" ry="25" fill="#10B981" transform="rotate(-20 595 325)"/>
    <ellipse cx="605" cy="320" rx="15" ry="25" fill="#059669" transform="rotate(20 605 320)"/>
    <ellipse cx="600" cy="310" rx="15" ry="28" fill="#10B981"/>
  </g>
  
  <!-- Floating icons/elements -->
  <!-- Graduation cap icon -->
  <g id="graduation-cap" transform="translate(120, 150)">
    <polygon points="25,10 40,15 25,20 10,15" fill="#3B82F6"/>
    <rect x="22" y="20" width="6" height="15" rx="1" fill="#2563EB"/>
    <circle cx="25" cy="36" r="3" fill="#1E40AF"/>
  </g>
  
  <!-- Star rating -->
  <g id="stars" transform="translate(650, 200)">
    <polygon points="15,5 17,11 23,11 18,15 20,21 15,17 10,21 12,15 7,11 13,11" fill="#FCD34D"/>
    <polygon points="35,8 37,14 43,14 38,18 40,24 35,20 30,24 32,18 27,14 33,14" fill="#FCD34D"/>
    <text x="25" y="35" font-family="Arial, sans-serif" font-size="12" font-weight="bold" fill="#3B82F6">4.5+</text>
  </g>
  
  <!-- Light bulb (idea) -->
  <g id="lightbulb" transform="translate(680, 350)">
    <circle cx="0" cy="0" r="18" fill="#FDE047"/>
    <rect x="-6" y="12" width="12" height="8" rx="2" fill="#94A3B8"/>
    <line x1="-25" y1="-5" x2="-30" y2="-5" stroke="#FCD34D" stroke-width="2"/>
    <line x1="-22" y1="-18" x2="-26" y2="-22" stroke="#FCD34D" stroke-width="2"/>
    <line x1="25" y1="-5" x2="30" y2="-5" stroke="#FCD34D" stroke-width="2"/>
    <line x1="22" y1="-18" x2="26" y2="-22" stroke="#FCD34D" stroke-width="2"/>
  </g>
  
  <!-- Clock -->
  <circle cx="150" cy="220" r="30" fill="#FFFFFF" stroke="#3B82F6" stroke-width="3"/>
  <circle cx="150" cy="220" r="25" fill="#EBF4FF"/>
  <line x1="150" y1="220" x2="150" y2="205" stroke="#2563EB" stroke-width="3" stroke-linecap="round"/>
  <line x1="150" y1="220" x2="162" y2="220" stroke="#2563EB" stroke-width="2" stroke-linecap="round"/>
  <circle cx="150" cy="220" r="3" fill="#1E40AF"/>
  
  <!-- Mathematical symbols floating -->
  <text x="200" y="180" font-family="Arial, sans-serif" font-size="24" font-weight="bold" fill="#3B82F6" opacity="0.6">π</text>
  <text x="620" y="450" font-family="Arial, sans-serif" font-size="20" font-weight="bold" fill="#3B82F6" opacity="0.6">∑</text>
  <text x="140" y="420" font-family="Arial, sans-serif" font-size="18" fill="#2563EB" opacity="0.5">ABC</text>
</svg>
